<svg width="799.9999999999999" height="810" xmlns="http://www.w3.org/2000/svg" stroke="null" style="vector-effect: non-scaling-stroke;">
 <!-- Created with Method Draw - http://github.com/duopixel/Method-Draw/ -->

 <g stroke="null">
  <title stroke="null">background</title>
  <rect stroke="null" fill="none" id="canvas_background" height="712" width="802" y="-1" x="-1"/>
  <g stroke="null" style="vector-effect: non-scaling-stroke;" display="none" overflow="visible" y="0" x="0" height="100%" width="100%" id="canvasGrid">
   <rect stroke="null" fill="url(#gridpattern)" stroke-width="0" y="0" x="0" height="100%" width="100%"/>
  </g>
 </g>
 <g stroke="null">
  <title stroke="null">Layer 1</title>
  <!-- Created with Method Draw - http://github.com/duopixel/Method-Draw/ -->
  <g stroke="null" transform="matrix(1,0,0,1,0,0) matrix(1,0,0,1,0,0) matrix(1,0,0,1,0,0) matrix(1,0,0,1,0,0) matrix(1,0,0,1,0,0) matrix(1,0,0,1,0,0) " id="svg_41">
   <g stroke="null" style="vector-effect: non-scaling-stroke;" transform="matrix(1.3054634115830663,0,0,2.1309126838789845,-3809.3785112814326,-5502.785027617944) " id="svg_38">
    <title stroke="null" style="vector-effect: non-scaling-stroke;" fill="none" transform="translate(0,-0.9389158487319946) translate(5.404683589935303,0) translate(-10.383953094482422,0) translate(0,8.916367530822754) translate(-370.58819580078125,15.168063163757324) translate(3299.999755859375,0) translate(0,2599.999755859375) ">background</title>
    <rect stroke="null" style="vector-effect: non-scaling-stroke;" x="2923.43229" y="2622.14527" width="602" height="202" id="svg_36" fill="none"/>
    <g stroke="null" style="vector-effect: non-scaling-stroke;" id="svg_35" display="none">
     <rect stroke="null" style="vector-effect: non-scaling-stroke;" id="svg_39" width="800" height="600" x="2924.43229" y="2623.14527" stroke-width="0" fill="none"/>
    </g>
   </g>
   <g stroke="null" style="vector-effect: non-scaling-stroke;" transform="matrix(1.3054634115830663,0,0,2.1309126838789845,-3809.3785112814326,-5502.785027617944) " id="svg_40">
    <title stroke="null" style="vector-effect: non-scaling-stroke;" fill="none" transform="translate(0,-0.9389158487319946) translate(5.404683589935303,0) translate(-10.383953094482422,0) translate(0,8.916367530822754) translate(-370.58819580078125,15.168063163757324) translate(3299.999755859375,0) translate(0,2599.999755859375) ">Layer 1</title>
    <metadata stroke="null" style="vector-effect: non-scaling-stroke;" fill="none" transform="translate(0,-0.9389158487319946) translate(5.404683589935303,0) translate(-10.383953094482422,0) translate(0,8.916367530822754) translate(-370.58819580078125,15.168063163757324) translate(3299.999755859375,0) translate(0,2599.999755859375) ">Created by potrace 1.10, written by Peter Selinger 2001-2011</metadata>
    <g stroke="null" style="vector-effect: non-scaling-stroke;" id="svg_20">
     <g stroke="null" style="vector-effect: non-scaling-stroke;" transform="matrix(0.10510199970496134,0,0,-0.11895618332987054,-5193.168723337627,-5929.127805540314) " fill="#000000" id="svg_21">
      <path stroke="null" style="vector-effect: non-scaling-stroke;" fill="none" d="m77307.99419,-72236.41661c-3,-7 -4,-242 -3,-523l3,-510l425,0l425,0l0,520l0,520l-423,3c-333,2 -424,0 -427,-10zm355,-180c0,-9 -37,-66 -50,-78c-3,-3 -13,-17 -23,-32c-22,-34 -46,-35 -76,-4c-28,29 -19,49 17,42c23,-4 32,2 64,44c25,33 43,47 53,44c8,-4 15,-11 15,-16zm356,-29c13,-21 -21,-29 -127,-29c-77,0 -110,4 -118,13c-6,8 -8,17 -4,20c11,12 241,8 249,-4zm-361,-304l0,-100l-105,0l-105,0l-3,89c-2,49 0,96 2,103c4,11 29,13 108,11l103,-3l0,-100zm365,0c0,-8 -8,-15 -17,-16c-89,-3 -224,0 -232,6c-29,17 10,25 125,25c104,0 124,-2 124,-15zm-362,-291c2,-69 -1,-94 -12,-103c-9,-8 -46,-11 -107,-9l-94,3l-3,89c-2,49 0,96 2,103c4,11 29,13 108,11l103,-3l3,-91zm357,-4c0,-12 -21,-16 -114,-18c-130,-3 -150,0 -131,23c19,23 245,18 245,-5z" id="svg_34"/>
      <path stroke="null" style="vector-effect: non-scaling-stroke;" fill="none" d="m77494.99419,-72696.41661c-7,-7 -12,-30 -12,-53c0,-54 13,-65 76,-65c57,0 64,7 64,65c0,58 -7,65 -64,65c-29,0 -57,-5 -64,-12z" id="svg_33"/>
      <path stroke="null" style="vector-effect: non-scaling-stroke;" fill="none" d="m77489.99419,-72990.41661c-4,-4 -7,-29 -7,-56c0,-57 14,-67 88,-58l47,5l0,55l0,55l-60,3c-34,2 -64,0 -68,-4z" id="svg_32"/>
      <path stroke="null" style="vector-effect: non-scaling-stroke;" fill="none" d="m79189.99419,-72410.41661c-9,-9 -10,-756 -1,-778c7,-20 79,-22 91,-3c4,6 10,94 13,194l5,182l37,38c21,21 58,46 84,56c39,14 50,15 78,3c65,-27 70,-48 76,-276l5,-205l45,0l45,0l0,230l0,230l-27,42c-65,99 -198,110 -315,27c-31,-22 -32,-15 -35,136l-3,125l-45,3c-25,2 -49,0 -53,-4z" id="svg_31"/>
      <path stroke="null" style="vector-effect: non-scaling-stroke;" fill="none" d="m80994.99419,-72801.41661l3,-398l39,-3c21,-2 43,1 48,6c5,5 10,47 11,93l2,84l40,37c42,39 69,48 78,24c3,-8 44,-66 92,-130l86,-116l44,0c24,0 46,4 49,8c5,9 -81,138 -166,251c-27,36 -47,70 -46,77c2,7 49,60 106,119c56,58 102,110 102,115c0,6 -23,10 -51,10l-51,0l-135,-132c-107,-106 -136,-129 -144,-118c-5,9 -9,108 -9,230c1,118 1,221 1,228c-1,8 -18,12 -51,12l-50,0l2,-397z" id="svg_30"/>
      <path stroke="null" style="vector-effect: non-scaling-stroke;" fill="none" d="m81559.99419,-72410.41661c-4,-4 -7,-170 -7,-368l0,-361l24,-26c13,-14 38,-31 55,-38c38,-16 111,-7 142,18c20,16 21,20 7,47c-12,26 -18,29 -54,26c-75,-4 -73,-10 -76,369l-3,334l-40,3c-23,2 -44,0 -48,-4z" id="svg_29"/>
      <path stroke="null" style="vector-effect: non-scaling-stroke;" fill="none" d="m81839.99419,-72410.41661c-4,-4 -7,-31 -7,-60c0,-42 4,-55 19,-64c57,-30 93,1 89,74l-3,51l-45,3c-25,2 -49,0 -53,-4z" id="svg_28"/>
      <path stroke="null" style="vector-effect: non-scaling-stroke;" fill="none" d="m78702.99419,-72433.41661c-65,-14 -154,-79 -199,-145c-130,-189 -75,-459 118,-580c48,-30 127,-56 170,-56c39,0 137,29 186,54c38,19 111,94 119,123c5,16 0,26 -23,42c-38,27 -59,27 -70,-3c-14,-36 -80,-84 -140,-102c-81,-23 -152,-6 -219,52c-58,51 -78,85 -99,169c-31,130 30,278 139,335c29,15 58,20 116,20c70,0 81,-3 123,-31c25,-18 54,-45 65,-60c23,-35 44,-36 80,-6l27,23l-25,40c-27,42 -71,80 -128,109c-38,20 -180,29 -240,16z" id="svg_27"/>
      <path stroke="null" style="vector-effect: non-scaling-stroke;" fill="none" d="m82609.99419,-72441.41661c-4,-3 -7,-41 -7,-83c0,-81 -9,-100 -47,-100c-16,0 -27,-8 -33,-25c-14,-36 -4,-50 38,-61l37,-9l5,-210c5,-230 8,-238 67,-269c41,-20 81,-20 135,0c63,25 69,33 53,72c-15,35 -25,38 -74,21c-25,-9 -36,-8 -56,5l-25,16l0,185l0,184l33,5c17,2 43,4 56,5c35,0 47,16 35,48c-8,25 -16,29 -61,33c-29,3 -55,9 -59,13c-4,3 -6,39 -5,78c1,42 -3,76 -10,85c-12,14 -70,20 -82,7z" id="svg_26"/>
      <path stroke="null" style="vector-effect: non-scaling-stroke;" fill="none" d="m79925.99419,-72645.41661c-173,-84 -218,-323 -88,-467c116,-128 285,-136 411,-20c46,42 57,81 28,92c-29,11 -72,6 -77,-9c-4,-8 -25,-28 -48,-45c-35,-25 -51,-30 -100,-30c-50,0 -63,4 -99,33c-47,36 -86,97 -77,121c6,14 34,16 220,16c250,0 243,-2 232,87c-25,198 -224,308 -402,222zm222,-87c22,-15 51,-47 63,-70c38,-68 29,-72 -164,-72c-154,0 -163,1 -169,20c-9,28 28,85 78,121c56,40 134,41 192,1z" id="svg_25"/>
      <path stroke="null" style="vector-effect: non-scaling-stroke;" fill="none" d="m80558.99419,-72634.41661c-117,-54 -176,-148 -176,-281c0,-128 54,-216 165,-268c108,-51 209,-39 302,36c45,36 66,89 42,104c-31,20 -77,9 -111,-25c-19,-19 -53,-40 -76,-46c-35,-11 -48,-11 -86,4c-137,52 -179,220 -86,339c24,30 96,67 132,67c35,-1 102,-34 125,-64c25,-32 65,-34 93,-6c24,24 18,40 -30,89c-69,69 -205,93 -294,51z" id="svg_24"/>
      <path stroke="null" style="vector-effect: non-scaling-stroke;" fill="none" d="m82141.99419,-72641.41661c-40,-21 -60,-39 -77,-70c-61,-112 -9,-194 148,-233c160,-40 208,-78 167,-130c-29,-37 -61,-50 -127,-50c-53,0 -75,6 -119,30c-65,36 -84,37 -104,7c-13,-21 -13,-25 2,-44c35,-44 140,-83 226,-83c83,0 141,22 188,72c34,38 37,45 37,100c0,75 -20,106 -87,135c-47,20 -132,47 -186,58c-44,9 -70,41 -63,79c10,49 38,66 113,66c52,0 75,-6 115,-27c56,-30 81,-25 86,19c2,19 -4,31 -25,45c-87,60 -205,71 -294,26z" id="svg_23"/>
      <path stroke="null" style="vector-effect: non-scaling-stroke;" fill="none" d="m81839.99419,-72631.41661c-4,-3 -7,-128 -7,-278c0,-197 3,-274 12,-283c18,-18 85,-15 92,4c3,9 6,132 6,274c0,142 -3,265 -6,274c-4,11 -19,16 -48,16c-24,0 -46,-3 -49,-7z" id="svg_22"/>
     </g>
    </g>
   </g>
  </g>
  <!-- Created with Method Draw - http://github.com/duopixel/Method-Draw/ -->
  <g stroke="null" style="vector-effect: non-scaling-stroke;" id="svg_82">
   <g stroke="null" transform="matrix(1.3436692713333391,0,0,3.6033826004152885,-3886.265129332437,-9462.766226630152) " id="svg_79">
    <title stroke="null" transform="translate(0.992307722568512,0) translate(-4.547473508864641e-13,0) translate(0,4.547473508864641e-13) translate(0,-16.14248275756836) translate(0,-24.081924438476562) translate(0,-0.00002271111043228302) translate(0,-0.00002271111043228302) translate(0,-27.292749404907227) translate(0,-0.0001694401871645823) translate(0,0.00007349213410634547) translate(0,-0.08928273618221283) translate(0,0.11470916867256165) translate(9.923076629638672,18.85164451599121) translate(-12.90000057220459,122.53567504882812) translate(-0.992307722568512,-66.22117614746094) translate(0,7.388313293457031) translate(0.992307722568512,13.40842056274414) translate(-3.9823594093322754,0) translate(-1.007250428199768,-4.104618549346924) translate(0,0.5472824573516846) translate(0,-1.6418473720550537) translate(-1.007250428199768,-25.17499351501465) translate(0,-12.313855171203613) translate(-4.547473508864641e-13,-2.2323696613311768) translate(-2.3502495288848877,0) translate(2.014500856399536,15.024089813232422) translate(0.00007031307904981077,0) translate(0.00007031307904981077,0) translate(1.5320230722427368,0) translate(-1.5746773481369019,0) translate(1.5320230722427368,0) translate(-5.3620805740356445,0) translate(-3.063873529434204,0) translate(-0.7660115361213684,-27.65408706665039) translate(3.8300576210021973,7.059388637542725) translate(-4.979156494140625,0) translate(0,-1.0383085012435913) translate(0,-3.1467742919921875) translate(-117.76033782958984,-4.559248447418213) translate(-278.5732421875,11.54693603515625) translate(3299.999755859375,0) translate(0,2599.999755859375) ">background</title>
    <rect stroke="null" x="2885.4974" y="2579.78236" width="602" height="202" id="svg_77" fill="none"/>
    <g stroke="null" id="svg_76" display="none">
     <rect stroke="null" id="svg_80" width="800" height="600" x="2886.4974" y="2580.78236" stroke-width="0" fill="url(#gridpattern)"/>
    </g>
   </g>
   <g stroke="null" transform="matrix(1.3607486596458955,0,0,5.6790374903267,-3935.7230228925337,-15145.822178015875) " id="svg_81">
    <title stroke="null" transform="translate(4.547473508864641e-13,0) translate(-342.7066345214844,36.15916061401367) translate(342.7066345214844,-36.15916061401367) translate(0,27.44222068786621) translate(0.9847891926765442,19.693828582763672) translate(0,-16.14248275756836) translate(-4.547473508864641e-13,-24.081924438476562) translate(-4.547473508864641e-13,-0.00002271111043228302) translate(-4.547473508864641e-13,-0.00002271111043228302) translate(-4.547473508864641e-13,-27.292749404907227) translate(-4.547473508864641e-13,-0.0001694401871645823) translate(-4.547473508864641e-13,0.00007349213410634547) translate(-4.547473508864641e-13,-0.08928273618221283) translate(0,0.11470916867256165) translate(9.847891807556152,18.85164451599121) translate(-12.80225944519043,122.53567504882812) translate(-0.9847891926765442,-66.22117614746094) translate(0,7.388313293457031) translate(0.9847891926765442,13.40842056274414) translate(-3.952185869216919,0) translate(-0.999618649482727,-4.104618549346924) translate(4.547473508864641e-13,0.5472824573516846) translate(4.547473508864641e-13,-1.6418473720550537) translate(-0.999618649482727,-25.17499351501465) translate(4.547473508864641e-13,-12.313855171203613) translate(-4.547473508864641e-13,-2.2323696613311768) translate(-2.332442045211792,0) translate(1.999237298965454,15.024089813232422) translate(0.00006978033343330026,-4.547473508864641e-13) translate(0.00006978033343330026,-4.547473508864641e-13) translate(1.520415186882019,-4.547473508864641e-13) translate(-1.562746286392212,-4.547473508864641e-13) translate(1.520415186882019,-4.547473508864641e-13) translate(-5.321453094482422,-4.547473508864641e-13) translate(-3.063873529434204,0) translate(-0.7660115361213684,-27.65408706665039) translate(3.8300576210021973,7.059388637542725) translate(-4.979156494140625,0) translate(0,-1.0383085012435913) translate(0,-3.1467742919921875) translate(-117.76033782958984,-4.559248447418213) translate(-278.5732421875,11.54693603515625) translate(3299.999755859375,0) translate(0,2599.999755859375) ">Layer 1</title>
    <metadata stroke="null" transform="translate(4.547473508864641e-13,0) translate(-342.7066345214844,36.15916061401367) translate(342.7066345214844,-36.15916061401367) translate(0,27.44222068786621) translate(0.9847891926765442,19.693828582763672) translate(0,-16.14248275756836) translate(-4.547473508864641e-13,-24.081924438476562) translate(-4.547473508864641e-13,-0.00002271111043228302) translate(-4.547473508864641e-13,-0.00002271111043228302) translate(-4.547473508864641e-13,-27.292749404907227) translate(-4.547473508864641e-13,-0.0001694401871645823) translate(-4.547473508864641e-13,0.00007349213410634547) translate(-4.547473508864641e-13,-0.08928273618221283) translate(0,0.11470916867256165) translate(9.847891807556152,18.85164451599121) translate(-12.80225944519043,122.53567504882812) translate(-0.9847891926765442,-66.22117614746094) translate(0,7.388313293457031) translate(0.9847891926765442,13.40842056274414) translate(-3.952185869216919,0) translate(-0.999618649482727,-4.104618549346924) translate(4.547473508864641e-13,0.5472824573516846) translate(4.547473508864641e-13,-1.6418473720550537) translate(-0.999618649482727,-25.17499351501465) translate(4.547473508864641e-13,-12.313855171203613) translate(-4.547473508864641e-13,-2.2323696613311768) translate(-2.332442045211792,0) translate(1.999237298965454,15.024089813232422) translate(0.00006978033343330026,-4.547473508864641e-13) translate(0.00006978033343330026,-4.547473508864641e-13) translate(1.520415186882019,-4.547473508864641e-13) translate(-1.562746286392212,-4.547473508864641e-13) translate(1.520415186882019,-4.547473508864641e-13) translate(-5.321453094482422,-4.547473508864641e-13) translate(-3.063873529434204,0) translate(-0.7660115361213684,-27.65408706665039) translate(3.8300576210021973,7.059388637542725) translate(-4.979156494140625,0) translate(0,-1.0383085012435913) translate(0,-3.1467742919921875) translate(-117.76033782958984,-4.559248447418213) translate(-278.5732421875,11.54693603515625) translate(3299.999755859375,0) translate(0,2599.999755859375) ">Created by potrace 1.10, written by Peter Selinger 2001-2011</metadata>
    <g stroke="null" id="svg_61">
     <g stroke="null" transform="matrix(0.10510199970496134,0,0,-0.11895618332987054,-5193.168723337627,-5929.127805540314) " fill="#000000" id="svg_62">
      <path stroke="null" d="m76947.93887,-72276.54176c-3,-7 -4,-242 -3,-523l3,-510l425,0l425,0l0,520l0,520l-423,3c-333,2 -424,0 -427,-10zm355,-180c0,-9 -37,-66 -50,-78c-3,-3 -13,-17 -23,-32c-22,-34 -46,-35 -76,-4c-28,29 -19,49 17,42c23,-4 32,2 64,44c25,33 43,47 53,44c8,-4 15,-11 15,-16zm356,-29c13,-21 -21,-29 -127,-29c-77,0 -110,4 -118,13c-6,8 -8,17 -4,20c11,12 241,8 249,-4zm-361,-304l0,-100l-105,0l-105,0l-3,89c-2,49 0,96 2,103c4,11 29,13 108,11l103,-3l0,-100zm365,0c0,-8 -8,-15 -17,-16c-89,-3 -224,0 -232,6c-29,17 10,25 125,25c104,0 124,-2 124,-15zm-362,-291c2,-69 -1,-94 -12,-103c-9,-8 -46,-11 -107,-9l-94,3l-3,89c-2,49 0,96 2,103c4,11 29,13 108,11l103,-3l3,-91zm357,-4c0,-12 -21,-16 -114,-18c-130,-3 -150,0 -131,23c19,23 245,18 245,-5z" id="svg_75"/>
      <path stroke="null" d="m77134.93887,-72736.54176c-7,-7 -12,-30 -12,-53c0,-54 13,-65 76,-65c57,0 64,7 64,65c0,58 -7,65 -64,65c-29,0 -57,-5 -64,-12z" id="svg_74"/>
      <path stroke="null" d="m77129.93887,-73030.54176c-4,-4 -7,-29 -7,-56c0,-57 14,-67 88,-58l47,5l0,55l0,55l-60,3c-34,2 -64,0 -68,-4z" id="svg_73"/>
      <path stroke="null" d="m78829.93887,-72450.54176c-9,-9 -10,-756 -1,-778c7,-20 79,-22 91,-3c4,6 10,94 13,194l5,182l37,38c21,21 58,46 84,56c39,14 50,15 78,3c65,-27 70,-48 76,-276l5,-205l45,0l45,0l0,230l0,230l-27,42c-65,99 -198,110 -315,27c-31,-22 -32,-15 -35,136l-3,125l-45,3c-25,2 -49,0 -53,-4z" id="svg_72"/>
      <path stroke="null" d="m80634.93887,-72841.54176l3,-398l39,-3c21,-2 43,1 48,6c5,5 10,47 11,93l2,84l40,37c42,39 69,48 78,24c3,-8 44,-66 92,-130l86,-116l44,0c24,0 46,4 49,8c5,9 -81,138 -166,251c-27,36 -47,70 -46,77c2,7 49,60 106,119c56,58 102,110 102,115c0,6 -23,10 -51,10l-51,0l-135,-132c-107,-106 -136,-129 -144,-118c-5,9 -9,108 -9,230c1,118 1,221 1,228c-1,8 -18,12 -51,12l-50,0l2,-397z" id="svg_71"/>
      <path stroke="null" d="m81199.93887,-72450.54176c-4,-4 -7,-170 -7,-368l0,-361l24,-26c13,-14 38,-31 55,-38c38,-16 111,-7 142,18c20,16 21,20 7,47c-12,26 -18,29 -54,26c-75,-4 -73,-10 -76,369l-3,334l-40,3c-23,2 -44,0 -48,-4z" id="svg_70"/>
      <path stroke="null" d="m81479.93887,-72450.54176c-4,-4 -7,-31 -7,-60c0,-42 4,-55 19,-64c57,-30 93,1 89,74l-3,51l-45,3c-25,2 -49,0 -53,-4z" id="svg_69"/>
      <path stroke="null" d="m78342.93887,-72473.54176c-65,-14 -154,-79 -199,-145c-130,-189 -75,-459 118,-580c48,-30 127,-56 170,-56c39,0 137,29 186,54c38,19 111,94 119,123c5,16 0,26 -23,42c-38,27 -59,27 -70,-3c-14,-36 -80,-84 -140,-102c-81,-23 -152,-6 -219,52c-58,51 -78,85 -99,169c-31,130 30,278 139,335c29,15 58,20 116,20c70,0 81,-3 123,-31c25,-18 54,-45 65,-60c23,-35 44,-36 80,-6l27,23l-25,40c-27,42 -71,80 -128,109c-38,20 -180,29 -240,16z" id="svg_68"/>
      <path stroke="null" d="m82249.93887,-72481.54176c-4,-3 -7,-41 -7,-83c0,-81 -9,-100 -47,-100c-16,0 -27,-8 -33,-25c-14,-36 -4,-50 38,-61l37,-9l5,-210c5,-230 8,-238 67,-269c41,-20 81,-20 135,0c63,25 69,33 53,72c-15,35 -25,38 -74,21c-25,-9 -36,-8 -56,5l-25,16l0,185l0,184l33,5c17,2 43,4 56,5c35,0 47,16 35,48c-8,25 -16,29 -61,33c-29,3 -55,9 -59,13c-4,3 -6,39 -5,78c1,42 -3,76 -10,85c-12,14 -70,20 -82,7z" id="svg_67"/>
      <path stroke="null" d="m79565.93887,-72685.54176c-173,-84 -218,-323 -88,-467c116,-128 285,-136 411,-20c46,42 57,81 28,92c-29,11 -72,6 -77,-9c-4,-8 -25,-28 -48,-45c-35,-25 -51,-30 -100,-30c-50,0 -63,4 -99,33c-47,36 -86,97 -77,121c6,14 34,16 220,16c250,0 243,-2 232,87c-25,198 -224,308 -402,222zm222,-87c22,-15 51,-47 63,-70c38,-68 29,-72 -164,-72c-154,0 -163,1 -169,20c-9,28 28,85 78,121c56,40 134,41 192,1z" id="svg_66"/>
      <path stroke="null" d="m80198.93887,-72674.54176c-117,-54 -176,-148 -176,-281c0,-128 54,-216 165,-268c108,-51 209,-39 302,36c45,36 66,89 42,104c-31,20 -77,9 -111,-25c-19,-19 -53,-40 -76,-46c-35,-11 -48,-11 -86,4c-137,52 -179,220 -86,339c24,30 96,67 132,67c35,-1 102,-34 125,-64c25,-32 65,-34 93,-6c24,24 18,40 -30,89c-69,69 -205,93 -294,51z" id="svg_65"/>
      <path stroke="null" d="m81781.93887,-72681.54176c-40,-21 -60,-39 -77,-70c-61,-112 -9,-194 148,-233c160,-40 208,-78 167,-130c-29,-37 -61,-50 -127,-50c-53,0 -75,6 -119,30c-65,36 -84,37 -104,7c-13,-21 -13,-25 2,-44c35,-44 140,-83 226,-83c83,0 141,22 188,72c34,38 37,45 37,100c0,75 -20,106 -87,135c-47,20 -132,47 -186,58c-44,9 -70,41 -63,79c10,49 38,66 113,66c52,0 75,-6 115,-27c56,-30 81,-25 86,19c2,19 -4,31 -25,45c-87,60 -205,71 -294,26z" id="svg_64"/>
      <path stroke="null" d="m81479.93887,-72671.54176c-4,-3 -7,-128 -7,-278c0,-197 3,-274 12,-283c18,-18 85,-15 92,4c3,9 6,132 6,274c0,142 -3,265 -6,274c-4,11 -19,16 -48,16c-24,0 -46,-3 -49,-7z" id="svg_63"/>
     </g>
    </g>
   </g>
  </g>
 </g>
</svg>