<?xml version="1.0" encoding="iso-8859-1"?>
<!-- Generator: Adobe Illustrator 19.0.0, SVG Export Plug-In . SVG Version: 6.00 Build 0)  -->
<svg version="1.1" id="Capa_1" xmlns="http://www.w3.org/2000/svg" xmlns:xlink="http://www.w3.org/1999/xlink" x="0px" y="0px"
	 viewBox="0 0 512.002 512.002" style="enable-background:new 0 0 512.002 512.002;" xml:space="preserve">
<g>
	<g>
		<path d="M25.991,385.531C11.66,385.531,0,397.19,0,411.521s11.66,25.991,25.991,25.991s25.991-11.66,25.991-25.991
			S40.322,385.531,25.991,385.531z M25.991,422.511c-6.06,0-10.99-4.93-10.99-10.99s4.93-10.99,10.99-10.99
			c6.059,0,10.99,4.93,10.99,10.99S32.051,422.511,25.991,422.511z"/>
	</g>
</g>
<g>
	<g>
		<path d="M447.17,157.862c-2.997-16.097-10.877-30.63-22.784-42.03c-2.993-2.864-7.74-2.762-10.605,0.231
			c-2.864,2.992-2.761,7.74,0.231,10.605c9.626,9.215,15.992,20.95,18.411,33.94c1.141,6.123,6.027,10.939,12.162,11.981
			c30.371,5.169,52.414,31.315,52.414,62.171c0,30.856-22.043,57.002-52.413,62.172c-6.135,1.043-11.023,5.857-12.163,11.98
			c-6.453,34.656-40.161,57.227-74.631,50.173c-5.847-1.198-11.814,1.183-15.204,6.054c-16.704,24.005-45.961,36.22-75.044,30.857
			c-4.071-0.757-7.985,1.939-8.737,6.014c-0.752,4.073,1.94,7.985,6.014,8.737c5.381,0.993,10.892,1.497,16.377,1.497
			c29.325,0,56.846-14.372,73.643-38.451c42.455,8.655,84.316-19.058,92.261-62.073c37.604-6.399,64.898-38.766,64.898-76.96
			C512,196.567,484.706,164.201,447.17,157.862z"/>
	</g>
</g>
<g>
	<g>
		<path d="M390.543,96.786c-11.586-3.083-23.91-3.459-35.699-1.056c-35.641-51.097-111.34-51.292-147.175-0.151
			c-42.507-8.227-83.683,19.736-91.529,62.225c-37.605,6.398-64.899,38.764-64.899,76.959c0,38.193,27.294,70.56,64.83,76.899
			c7.894,42.399,48.919,70.536,91.598,62.286c5.858,8.36,13.053,15.622,21.385,21.584c1.322,0.946,2.847,1.401,4.358,1.401
			c7.252-0.005,10.304-9.358,4.369-13.604c-6.973-4.989-12.989-11.067-17.88-18.065c-3.359-4.807-9.244-7.191-14.992-6.064
			c-3.971,0.774-8.04,1.167-12.092,1.167c-30.374,0-56.449-21.639-62.001-51.453c-1.14-6.122-6.027-10.937-12.162-11.98
			c-30.371-5.169-52.414-31.315-52.414-62.172c0-30.857,22.043-57.002,52.414-62.171c6.134-1.044,11.022-5.858,12.163-11.981
			c6.423-34.494,39.813-56.977,74.091-50.285c5.744,1.123,11.634-1.259,14.993-6.064c13.996-20.025,36.911-31.981,61.297-31.981
			c24.452,0,47.401,12.002,61.392,32.107c3.393,4.872,9.362,7.247,15.204,6.051c9.544-1.953,19.517-1.65,28.888,0.845
			c4.003,1.067,8.112-1.316,9.178-5.318C396.926,101.962,394.546,97.853,390.543,96.786z"/>
	</g>
</g>
<g>
	<g>
		<path d="M157.257,402.634c-0.7-4.082-4.574-6.823-8.662-6.121c-4.083,0.701-6.823,4.579-6.122,8.662
			c3.125,18.185-10.935,34.511-29.044,34.511c-16.255,0-29.481-13.225-29.481-29.481c0-21.187,21.817-35.481,41.219-27.046
			c3.798,1.653,8.217-0.09,9.87-3.888c1.652-3.798-0.089-8.217-3.887-9.869c-29.329-12.755-62.203,8.877-62.203,40.802
			c0,24.526,19.954,44.482,44.482,44.482C140.784,454.687,161.961,430.005,157.257,402.634z"/>
	</g>
</g>
<g>
</g>
<g>
</g>
<g>
</g>
<g>
</g>
<g>
</g>
<g>
</g>
<g>
</g>
<g>
</g>
<g>
</g>
<g>
</g>
<g>
</g>
<g>
</g>
<g>
</g>
<g>
</g>
<g>
</g>
</svg>
